<svg id="Layer_1" data-name="Layer 1" xmlns="http://www.w3.org/2000/svg" viewBox="0 0 428.3 55.2"><defs><style>.cls-1{fill:#636359;}.cls-2{fill:#f2c237;}</style></defs><path class="cls-1" d="M407.63,21.78h10.54a3,3,0,0,1,2.38.76c.43.51.49,1.57.16,3.18L419.15,33a5.07,5.07,0,0,1-1.52,3.13,4.32,4.32,0,0,1-2.66.76H404.43Zm7.59,22q4.75,0,7.38-2.65c1.75-1.76,3-4.44,3.77-8l1.56-7.38q1.1-5.2-1.09-8t-7.11-2.83H402.91a1.27,1.27,0,0,0-1.35,1.11l-5.62,26.49a1.17,1.17,0,0,0,.17,1,1.1,1.1,0,0,0,.94.37ZM388.89,26.37A4.71,4.71,0,0,1,387,29.53a8.13,8.13,0,0,1-3.89.74h-8.2l1.8-8.49h8.2a6.64,6.64,0,0,1,3.75.76c.7.51.85,1.57.44,3.18ZM372,14.81a1.28,1.28,0,0,0-1.36,1.11L365,42.41a1.14,1.14,0,0,0,.16,1,1.11,1.11,0,0,0,.94.37h4.8a1.26,1.26,0,0,0,1.35-1.11l1.15-5.49h8.33L384,42.82a1.38,1.38,0,0,0,1.4.94h5.29a1,1,0,0,0,.94-.39,1.12,1.12,0,0,0,0-1l-2.79-5.78A9.09,9.09,0,0,0,393.65,33a18.32,18.32,0,0,0,2.58-6.54l.16-.78q1.11-5.3-1.49-8.08t-8.76-2.79Zm-21.2,7.46L353,33.34h-9.18Zm10.78,21.49a1.1,1.1,0,0,0,.94-.37,1,1,0,0,0,.13-1l-6.44-26.53a1.25,1.25,0,0,0-1.35-1.07H349a1.69,1.69,0,0,0-1.47.78l-17.8,26.69a1,1,0,0,0-.16,1,1,1,0,0,0,1,.43h5.7a1.55,1.55,0,0,0,1.48-.82l2.34-3.69h14.1l.7,3.4a1.24,1.24,0,0,0,1.31,1.11Zm-53-7.57a3,3,0,0,1-.06-2.15l2-9.47a4.15,4.15,0,0,1,1-2.19,2.9,2.9,0,0,1,2-.6h10.79c.93,0,1.52.2,1.78.6a3.15,3.15,0,0,1,.06,2.19l-2,9.47a3.92,3.92,0,0,1-1,2.13,2.93,2.93,0,0,1-2,.62H310.25c-.91,0-1.49-.2-1.75-.6m11.87,7.57q8.94,0,11-10l1.89-9c.66-3,.23-5.4-1.27-7.24s-3.88-2.77-7.14-2.77H314.1q-8.85,0-11,10l-1.89,9q-.94,4.47,1.32,7.21t7.09,2.75Zm-41-11.65h9.76a3.75,3.75,0,0,1,1.89.39c.43.26.56.8.36,1.62l-.16.74a2.42,2.42,0,0,1-2.71,2H278.35Zm2.17-10.33H291a3.61,3.61,0,0,1,1.86.41c.45.28.6.81.43,1.6l-.16.74a2.42,2.42,0,0,1-2.71,2h-9.88Zm6.56,22q5,0,7.34-1.95a9.85,9.85,0,0,0,3.08-6.09l.08-.45q.69-4-1.68-6a5.9,5.9,0,0,0,2.56-2.17,9,9,0,0,0,1.46-3.65l.08-.49q.66-3.93-1.95-6t-7.85-2.09H276.87a1.26,1.26,0,0,0-1.35,1.11L269.9,42.41a1.17,1.17,0,0,0,.16,1,1.12,1.12,0,0,0,.95.37ZM262.85,26.37a4.75,4.75,0,0,1-1.93,3.16,8.17,8.17,0,0,1-3.9.74h-8.2l1.81-8.49h8.2a6.69,6.69,0,0,1,3.75.76c.7.51.84,1.57.43,3.18ZM245.91,14.81a1.26,1.26,0,0,0-1.35,1.11l-5.62,26.49a1.17,1.17,0,0,0,.16,1,1.13,1.13,0,0,0,1,.37h4.8a1.27,1.27,0,0,0,1.35-1.11l1.15-5.49h8.32l2.3,5.66a1.37,1.37,0,0,0,1.39.94h5.29a1,1,0,0,0,.94-.39,1.09,1.09,0,0,0,0-1l-2.79-5.78A9.09,9.09,0,0,0,267.6,33a18.5,18.5,0,0,0,2.59-6.54l.16-.78q1.11-5.3-1.5-8.08t-8.75-2.79ZM234.27,43.76a1.27,1.27,0,0,0,1.35-1.11l.94-4.51a1.16,1.16,0,0,0-.16-1,1.11,1.11,0,0,0-.94-.37H219.63l.94-4.43h9.84a1.28,1.28,0,0,0,1.36-1.11l.82-3.85a1.19,1.19,0,0,0-.17-1,1.14,1.14,0,0,0-.94-.36h-9.56l.91-4.27h16.11a1.26,1.26,0,0,0,1.35-1.11l1-4.51a1.17,1.17,0,0,0-.17-1,1.1,1.1,0,0,0-.94-.37h-22a1.26,1.26,0,0,0-1.35,1.11l-5.62,26.49a1.14,1.14,0,0,0,.17,1,1.1,1.1,0,0,0,.94.37Zm-55.15,0a1.27,1.27,0,0,0,1.35-1.11l3.4-16.07,4.47,11.6a1.35,1.35,0,0,0,1.4,1h2.87a1.82,1.82,0,0,0,1.51-.74l9.68-12-3.4,15.95a1.14,1.14,0,0,0,.16,1,1.11,1.11,0,0,0,.94.37h4.76a1.26,1.26,0,0,0,1.35-1.11l5.62-26.49a1.17,1.17,0,0,0-.16-1,1.13,1.13,0,0,0-.95-.37h-6.48a1.75,1.75,0,0,0-1.51.74L192.56,30.72l-5.74-14.93a1.34,1.34,0,0,0-1.39-1h-5.21a1.27,1.27,0,0,0-1.35,1.11l-5.62,26.49a1.17,1.17,0,0,0,.17,1,1.1,1.1,0,0,0,.94.37Zm-37.93,0a1.26,1.26,0,0,0,1.35-1.11l3.4-16.07,4.47,11.6a1.35,1.35,0,0,0,1.4,1h2.87a1.85,1.85,0,0,0,1.52-.74l9.67-12-3.4,15.95a1.17,1.17,0,0,0,.16,1,1.12,1.12,0,0,0,1,.37h4.75a1.28,1.28,0,0,0,1.36-1.11l5.61-26.49a1.17,1.17,0,0,0-.16-1,1.11,1.11,0,0,0-.94-.37h-6.48a1.77,1.77,0,0,0-1.52.74L154.64,30.72,148.9,15.79a1.35,1.35,0,0,0-1.4-1h-5.21a1.27,1.27,0,0,0-1.35,1.11l-5.62,26.49a1.17,1.17,0,0,0,.17,1,1.1,1.1,0,0,0,.94.37Zm-18.74,0q8.94,0,11-10l3.73-17.64a1.17,1.17,0,0,0-.16-1,1.13,1.13,0,0,0-1-.37h-4.79A1.28,1.28,0,0,0,130,15.92L126.14,34a3.76,3.76,0,0,1-1.09,2.22,3.22,3.22,0,0,1-2,.53h-9.55a2.21,2.21,0,0,1-1.7-.53c-.31-.36-.35-1.1-.1-2.22l3.77-17.88a1.14,1.14,0,0,0-.17-1,1.1,1.1,0,0,0-.94-.37h-4.79a1.28,1.28,0,0,0-1.36,1.11L104.49,33.8q-.94,4.47,1.31,7.21c1.5,1.83,3.87,2.75,7.09,2.75Zm-31.53,0q5,0,7.4-2.11a11.59,11.59,0,0,0,3.38-6.54q.87-4-1.13-6.19T94,26.41l-8.32-.57a2.51,2.51,0,0,1-1.7-.55,1.68,1.68,0,0,1-.19-1.54,2.34,2.34,0,0,1,.92-1.54,4,4,0,0,1,2.08-.43h7.62c1.23,0,1.89.51,2,1.52,0,.85.44,1.27,1.15,1.27h4.88a1.21,1.21,0,0,0,1.35-1.15q.54-4.09-1.74-6.35t-7-2.26H87.31q-5,0-7.42,2a11.14,11.14,0,0,0-3.36,6.44q-1.69,8,7.79,8.73l8.32.66a2.43,2.43,0,0,1,1.68.55,1.91,1.91,0,0,1,.21,1.58,2.35,2.35,0,0,1-1,1.52,3.89,3.89,0,0,1-2.09.45H83.25c-1.2,0-1.85-.51-1.93-1.52,0-.85-.44-1.27-1.15-1.27H75.29a1.21,1.21,0,0,0-1.35,1.15c-.35,2.76.22,4.89,1.72,6.37s3.82,2.24,6.93,2.24Z"/><path class="cls-2" d="M1.79,55.2a1.79,1.79,0,0,1-1.43-.6A1.71,1.71,0,0,1,.06,53l1-4.76a1.9,1.9,0,0,1,2-1.62h21.7c14.7,0,25-8,28.17-21.84.37-1.62.79-3.5,1.12-5H41.92c-4.84,0-8.72,1.11-11.54,3.3a15.64,15.64,0,0,0-5.07,7.74l-.06.18a2,2,0,0,1-2.06,1.69H18a1.4,1.4,0,0,1-1.16-.57,2,2,0,0,1-.27-1.68c1.5-6.07,4.39-10.82,8.6-14.1s10-5.1,16.78-5.1h20.7a1.77,1.77,0,0,1,1.28.6,1.75,1.75,0,0,1,.3,1.56l-.88,4.13s0,.06,0,.08-1.2,5.49-2,9.09C57.1,44.83,43.8,55.2,24.78,55.2Z"/><path class="cls-2" d="M4.08,43.93h0a1.74,1.74,0,0,1-1.27-.59,1.77,1.77,0,0,1-.31-1.57l.89-4.13a.22.22,0,0,1,0-.08c0-.07,1.2-5.48,2-9.08C9.6,10.38,22.91,0,41.92,0h23a1.78,1.78,0,0,1,1.43.6,1.75,1.75,0,0,1,.31,1.56l-1,4.77a1.9,1.9,0,0,1-2,1.61H41.92c-14.7,0-25,8-28.17,21.85-.37,1.61-.78,3.49-1.11,5H24.78c4.84,0,8.72-1.11,11.54-3.31a15.59,15.59,0,0,0,5.07-7.73l.07-.19a2,2,0,0,1,2-1.68h5.22A1.44,1.44,0,0,1,49.9,23a2,2,0,0,1,.26,1.69c-1.5,6.07-4.39,10.81-8.59,14.09s-10,5.11-16.79,5.11Z"/></svg>